<svg version="1.1" id="Layer_1" xmlns="http://www.w3.org/2000/svg" xmlns:xlink="http://www.w3.org/1999/xlink" x="0px" y="0px"
	 width="100%" viewBox="0 0 1200 1200" enable-background="new 0 0 1200 1200" xml:space="preserve">
<path fill="#000000" opacity="1.000000" stroke="none" 
	d="
M677.000000,1201.000000 
	C451.333344,1201.000000 226.166672,1201.000000 1.000000,1201.000000 
	C1.000000,801.000000 1.000000,401.000000 1.000000,1.000000 
	C401.000000,1.000000 801.000000,1.000000 1201.000000,1.000000 
	C1201.000000,401.000000 1201.000000,801.000000 1201.000000,1201.000000 
	C1026.500000,1201.000000 852.000000,1201.000000 677.000000,1201.000000 
M600.277893,98.421066 
	C583.144470,107.651237 565.982788,116.829308 548.884521,126.124062 
	C524.405273,139.431152 499.978790,152.835358 475.517273,166.175125 
	C459.586517,174.862747 443.614044,183.473984 427.695038,192.182968 
	C403.531067,205.402618 379.415741,218.711273 355.244171,231.916962 
	C339.177734,240.694565 323.029510,249.322449 306.953003,258.081757 
	C282.333252,271.495911 257.741455,284.961334 233.142242,298.413116 
	C218.818512,306.245880 204.489639,314.069702 190.225296,322.009308 
	C189.512283,322.406158 189.392471,323.868744 188.266159,325.333435 
	C188.177338,326.989868 188.010880,328.646332 188.010742,330.302765 
	C187.998840,478.798859 187.999695,627.294983 187.999695,775.791077 
	C187.999695,777.429016 187.999710,779.067017 187.999710,781.297363 
	C189.865662,780.683533 191.313004,780.437988 192.528809,779.770630 
	C201.648880,774.764648 210.703384,769.639221 219.817230,764.621765 
	C230.068008,758.978455 240.388138,753.460876 250.626770,747.795837 
	C269.117981,737.564575 287.586273,727.291626 306.033600,716.981445 
	C315.526886,711.675659 324.954437,706.252319 334.907806,701.326782 
	C355.566833,712.873718 376.192749,724.480469 396.895203,735.948914 
	C414.013550,745.431885 431.259430,754.684509 448.381897,764.160156 
	C471.829590,777.136230 495.227875,790.201843 518.620239,803.277527 
	C531.820984,810.656372 544.917542,818.222534 558.152100,825.539673 
	C572.390564,833.411926 586.735535,841.091492 601.746460,848.780334 
	C616.383667,840.769958 631.057678,832.825806 645.649536,824.733643 
	C668.254883,812.197510 690.790527,799.535767 713.382507,786.975464 
	C726.715576,779.562927 740.138550,772.311646 753.453003,764.866272 
	C775.742798,752.401855 797.962769,739.812683 820.241760,727.328918 
	C836.058289,718.466370 851.923706,709.690979 868.153809,701.498535 
	C890.312439,713.753784 912.469849,726.011108 934.630005,738.263550 
	C956.801453,750.522339 978.968933,762.788208 1001.154724,775.020874 
	C1005.100769,777.196655 1009.127808,779.225464 1013.999939,781.785950 
	C1013.999939,779.047852 1013.999939,777.438965 1013.999939,775.830078 
	C1014.000061,626.417419 1014.002502,477.004791 1013.965393,327.592133 
	C1013.965027,326.052399 1013.442688,324.512787 1012.685730,322.447571 
	C1011.636292,321.981720 1010.546692,321.589111 1009.543274,321.039307 
	C978.353821,303.949615 947.191589,286.810242 915.982910,269.755859 
	C899.519165,260.759064 882.938538,251.976288 866.478027,242.973709 
	C835.129089,225.828369 803.852539,208.550644 772.500854,191.410400 
	C742.583496,175.054260 712.599487,158.819977 682.663574,142.497726 
	C670.059753,135.625610 657.548767,128.582596 644.915039,121.766472 
	C630.293945,113.878090 615.584290,106.153923 600.277893,98.421066 
M440.000000,932.521606 
	C440.000000,929.082336 440.000000,925.643127 440.000000,922.000366 
	C435.804779,922.000366 432.152435,921.841736 428.527893,922.089783 
	C427.323334,922.172119 425.691040,923.001160 425.100281,923.992798 
	C417.824066,936.207031 410.704773,948.514832 403.188171,961.410522 
	C395.089447,948.092407 387.246460,935.194946 379.372406,922.246338 
	C375.156250,922.246338 370.723145,922.246338 366.238953,922.246338 
	C366.238953,944.224731 366.238953,965.956055 366.238953,987.759644 
	C371.218353,987.759644 375.955536,987.759644 381.078186,987.759644 
	C381.078186,975.845764 381.078186,964.165405 381.078186,951.381348 
	C386.454224,960.286621 391.189270,968.231201 396.037903,976.105896 
	C397.693573,978.794861 399.046265,981.458191 403.381561,981.200989 
	C407.275116,980.970032 408.004211,978.425842 409.433990,976.061218 
	C414.433075,967.793762 419.422821,959.520691 424.416138,951.249756 
	C424.689240,951.349304 424.962372,951.448853 425.235474,951.548462 
	C425.235474,963.629883 425.235474,975.711304 425.235474,987.711548 
	C430.316010,987.711548 435.053833,987.711548 440.000000,987.711548 
	C440.000000,969.454956 440.000000,951.486023 440.000000,932.521606 
M782.029663,941.453613 
	C780.848816,941.630432 779.176941,942.402588 778.561096,941.894531 
	C769.754517,934.630310 760.520020,934.161255 750.737244,939.672424 
	C749.953979,940.113708 749.033936,940.312195 748.126160,940.642090 
	C748.000977,939.353149 747.894653,938.257935 747.799866,937.282104 
	C742.730896,937.282104 737.975037,937.282104 733.285522,937.282104 
	C733.285522,954.304810 733.285522,971.044067 733.285522,987.710083 
	C738.649841,987.710083 743.722656,987.710083 749.000000,987.710083 
	C749.000000,978.276367 748.882874,969.128357 749.087158,959.987610 
	C749.134827,957.857178 749.847168,955.475586 750.998047,953.689026 
	C753.734192,949.441589 758.320068,949.113037 762.481750,950.333862 
	C766.623840,951.549011 768.007019,955.399231 768.002869,959.614990 
	C767.993591,969.037109 768.000000,978.459290 768.000000,987.666504 
	C773.737915,987.666504 778.813477,987.666504 784.000000,987.666504 
	C784.000000,978.009949 783.957947,968.686157 784.016235,959.362976 
	C784.049866,953.981018 787.946655,950.636108 793.154846,949.872131 
	C799.117004,948.997498 803.147705,955.308289 803.047546,960.603760 
	C802.875671,969.690613 803.000000,978.783081 803.000000,987.670898 
	C808.395935,987.670898 813.134888,987.670898 818.000000,987.670898 
	C818.000000,975.853455 818.284241,964.354492 817.871643,952.880554 
	C817.684998,947.689880 815.530151,942.957764 810.660461,939.937866 
	C801.031250,933.966125 791.742920,935.020874 782.029663,941.453613 
M673.021667,937.017578 
	C665.274841,934.981628 658.003906,935.868591 651.181763,940.819397 
	C651.019836,939.409607 650.886169,938.246277 650.781433,937.334290 
	C645.594543,937.334290 640.854004,937.334290 636.320557,937.334290 
	C636.320557,954.398987 636.320557,971.128113 636.320557,987.679565 
	C641.382446,987.679565 646.119568,987.679565 651.000000,987.679565 
	C651.000000,981.711670 650.872070,976.059753 651.040222,970.416565 
	C651.176270,965.850647 651.408936,961.256592 652.081726,956.747131 
	C652.662476,952.855286 657.363708,950.156128 662.056580,949.946533 
	C667.111206,949.720764 669.095215,952.771057 669.937866,956.907715 
	C670.582642,960.072693 670.887939,963.347229 670.954712,966.581116 
	C671.101013,973.666687 671.000000,980.757263 671.000000,987.690796 
	C676.362183,987.690796 681.097839,987.690796 686.000000,987.690796 
	C686.000000,979.073181 685.925354,970.762878 686.049561,962.455444 
	C686.082947,960.226074 686.274231,957.802063 687.174377,955.822815 
	C689.159302,951.458191 692.680542,949.373352 697.692993,949.961670 
	C701.604492,950.420776 704.116150,952.583740 704.887817,956.166077 
	C705.671326,959.803223 705.867615,963.606201 705.955078,967.345154 
	C706.113464,974.117126 706.000000,980.895386 706.000000,987.774292 
	C711.191040,987.774292 715.926208,987.774292 720.999084,987.774292 
	C720.999084,976.434021 721.657776,965.265869 720.815918,954.211975 
	C719.955261,942.911865 712.923645,936.657959 701.268677,936.052246 
	C693.885864,935.668518 687.487366,938.640686 682.221924,942.904236 
	C679.170105,940.863159 676.486145,939.068176 673.021667,937.017578 
M928.899536,987.998657 
	C932.841797,987.998657 936.784058,987.998657 940.759888,987.998657 
	C940.759888,964.435913 940.759888,941.373108 940.759888,918.241211 
	C935.779419,918.241211 931.042480,918.241211 925.921387,918.241211 
	C925.921387,925.825806 925.921387,933.179932 925.921387,940.797485 
	C915.047668,932.995361 899.768616,935.415833 891.680725,944.704407 
	C884.365540,953.105591 883.718323,970.367615 891.617432,979.908325 
	C895.800598,984.960999 901.648682,987.875793 908.633240,988.058777 
	C915.202393,988.230774 921.581543,988.160889 926.399109,983.295715 
	C927.024475,985.121033 927.514099,986.549988 928.899536,987.998657 
M514.000000,974.492065 
	C514.000000,978.924927 514.000000,983.357788 514.000000,987.720215 
	C519.635498,987.720215 524.704590,987.720215 530.000000,987.720215 
	C530.000000,978.641907 529.938049,969.840759 530.023804,961.041138 
	C530.073547,955.939575 532.381897,951.785217 537.291748,950.397095 
	C541.316467,949.259216 546.205811,948.707397 548.731995,953.422424 
	C550.107727,955.990112 550.805969,959.183838 550.901306,962.124695 
	C551.179321,970.698181 551.000000,979.286438 551.000000,987.678711 
	C556.384705,987.678711 561.121582,987.678711 566.000000,987.678711 
	C566.000000,976.215698 566.121704,965.071716 565.958435,953.931946 
	C565.844177,946.131897 559.311951,938.945068 551.718994,936.926147 
	C543.855286,934.835266 536.846375,936.604126 529.724976,940.867371 
	C529.724976,933.010559 529.724976,925.588867 529.724976,918.302979 
	C524.318298,918.302979 519.248779,918.302979 514.000000,918.302979 
	C514.000000,936.901978 514.000000,955.198608 514.000000,974.492065 
M859.567322,936.946655 
	C850.063293,933.556641 836.347595,939.352661 830.897827,948.343994 
	C823.820557,960.020630 827.243774,977.717834 839.756897,984.564026 
	C846.596985,988.306396 853.514343,988.050232 860.619812,987.946167 
	C867.179321,987.850159 872.838318,985.456726 877.595642,979.617920 
	C874.813904,976.608887 872.090454,973.662842 869.386230,970.737610 
	C858.924500,979.062439 846.465942,977.093018 843.610352,966.683350 
	C856.119629,966.683350 868.531799,966.683350 881.386230,966.683350 
	C880.891052,962.392029 880.590637,958.484070 879.964233,954.629028 
	C878.614136,946.319763 868.952942,937.683289 859.567322,936.946655 
M605.980347,951.488037 
	C606.757568,953.140625 607.534790,954.793213 608.390808,956.613342 
	C601.793396,957.110779 595.900757,957.639954 589.997070,957.976257 
	C584.125000,958.310730 577.471619,962.308228 576.086304,966.911499 
	C574.248291,973.018982 574.786194,978.613892 579.800659,983.381592 
	C586.660950,989.904358 601.252930,990.067017 608.885986,983.368408 
	C608.971069,984.871887 609.052246,986.307373 609.135315,987.775513 
	C614.140503,987.775513 618.901001,987.775513 623.998840,987.775513 
	C623.998840,977.765076 624.487244,967.941650 623.817871,958.197815 
	C623.408569,952.239990 623.121277,945.414062 617.078735,941.729187 
	C613.335938,939.446655 609.143616,937.313843 604.896851,936.562927 
	C594.882935,934.792114 585.395020,936.771912 576.682800,942.553894 
	C578.714539,946.414307 580.495911,949.798950 582.388062,953.394104 
	C589.945374,948.977356 597.356995,946.884705 605.980347,951.488037 
M491.239014,939.022461 
	C484.664154,936.397095 478.116943,935.282959 470.901093,936.860901 
	C461.262421,938.968567 454.463776,944.056824 451.379883,953.310059 
	C448.203522,962.840637 449.438812,971.915344 456.268219,979.759766 
	C462.681549,987.126221 471.088654,988.197449 480.295624,988.147400 
	C489.997528,988.094604 502.498474,981.029236 504.727051,969.229736 
	C506.969543,957.356506 505.142151,946.015503 491.239014,939.022461 
M989.999268,958.043640 
	C989.999268,967.962463 989.999268,977.881287 989.999268,987.712280 
	C995.653076,987.712280 1000.721313,987.712280 1005.999512,987.712280 
	C1005.999512,977.127563 1006.377869,966.810425 1005.864014,956.537842 
	C1005.532654,949.914185 1003.606079,943.496948 997.228271,939.691772 
	C988.730225,934.621643 980.229187,934.677307 971.711060,939.682556 
	C970.947388,940.131348 970.021790,940.304443 969.125732,940.621704 
	C968.997437,939.329468 968.889221,938.239990 968.794373,937.284546 
	C963.713684,937.284546 958.964050,937.284546 954.265320,937.284546 
	C954.265320,954.294373 954.265320,971.018433 954.265320,987.737000 
	C959.270447,987.737000 964.005737,987.737000 969.000000,987.737000 
	C969.000000,979.015747 968.930176,970.554077 969.024475,962.094177 
	C969.087830,956.405518 972.882507,950.913025 977.116821,950.012146 
	C983.654419,948.621338 986.624023,950.270020 989.999268,958.043640 
M171.445984,988.000000 
	C173.215134,988.000000 174.984299,988.000000 176.732407,988.000000 
	C176.732407,970.724731 176.732407,953.988953 176.732407,937.270386 
	C171.721390,937.270386 166.982742,937.270386 162.502563,937.270386 
	C161.992523,946.589111 161.751633,955.648132 160.919266,964.652405 
	C160.307693,971.268250 155.227386,975.575806 149.722656,974.998291 
	C143.845367,974.381775 141.006424,970.539551 141.001373,963.171143 
	C140.995483,954.558838 141.000000,945.946533 141.000000,937.228027 
	C135.475754,937.228027 130.404877,937.228027 125.001167,937.228027 
	C125.001167,947.245300 124.869759,957.041382 125.083565,966.829895 
	C125.145378,969.659912 125.790604,972.635620 126.866203,975.258362 
	C132.280609,988.461060 148.452789,992.792786 160.167068,984.363159 
	C160.513824,984.113647 161.088196,984.180420 161.784683,984.060425 
	C161.930969,985.394714 162.064499,986.612610 162.216599,988.000000 
	C165.176407,988.000000 167.830597,988.000000 171.445984,988.000000 
M275.984009,987.976379 
	C280.584717,987.976379 285.185394,987.976379 289.724792,987.976379 
	C289.724792,970.704285 289.724792,953.970764 289.724792,937.276978 
	C284.706635,937.276978 279.968719,937.276978 274.999969,937.276978 
	C274.999969,945.189941 275.180054,952.834167 274.933167,960.464600 
	C274.782471,965.121460 273.985840,969.825684 269.950165,972.974365 
	C266.380463,975.759521 262.244080,975.727295 258.504364,973.708008 
	C254.896088,971.759644 253.961456,968.039246 253.984085,964.059082 
	C254.034866,955.125000 254.000000,946.190491 254.000000,937.264404 
	C248.398911,937.264404 243.327805,937.264404 239.001602,937.264404 
	C239.001602,949.078796 238.533783,960.649963 239.195862,972.156128 
	C239.534821,978.046875 242.685760,983.390564 248.680023,985.865906 
	C257.551086,989.529175 266.301727,989.279114 274.759277,983.823303 
	C274.920288,985.350281 275.040802,986.492920 275.984009,987.976379 
M1018.000000,945.544128 
	C1018.000000,953.368530 1017.995728,961.192993 1018.001099,969.017395 
	C1018.008850,980.320312 1025.628540,988.245789 1036.845337,987.890198 
	C1042.548096,987.709473 1048.214722,986.383850 1053.961060,985.566772 
	C1053.955078,985.507812 1054.067505,986.620972 1054.170288,987.637207 
	C1059.165527,987.637207 1064.057007,987.637207 1068.654297,987.637207 
	C1068.654297,970.545654 1068.654297,953.817810 1068.654297,937.344849 
	C1063.564697,937.344849 1058.825806,937.344849 1054.000000,937.344849 
	C1054.000000,945.673767 1054.550537,953.712646 1053.766724,961.619263 
	C1053.377563,965.545227 1051.189331,969.761963 1048.635010,972.880493 
	C1045.713989,976.446655 1041.005493,975.551392 1037.371826,973.621094 
	C1033.793457,971.720093 1032.940063,967.895813 1032.975342,963.907654 
	C1033.054321,954.991211 1033.000000,946.073486 1033.000000,937.309143 
	C1027.639526,937.309143 1022.903564,937.309143 1018.000000,937.309143 
	C1018.000000,939.930176 1018.000000,942.245361 1018.000000,945.544128 
M106.061829,926.407043 
	C101.465576,934.026245 96.869331,941.645508 91.976128,949.757019 
	C86.194267,940.135803 80.830338,931.210022 75.422836,922.211731 
	C69.907135,922.211731 64.190887,922.211731 57.858944,922.211731 
	C63.770351,931.950195 69.428116,941.259705 75.074364,950.576111 
	C79.417633,957.742676 84.649994,964.463989 83.125809,973.841980 
	C82.395218,978.337097 83.000000,983.049255 83.000000,987.780273 
	C88.512268,987.780273 93.580688,987.780273 99.000000,987.780273 
	C99.000000,981.111755 98.883362,974.653137 99.075005,968.203735 
	C99.128639,966.398621 99.762466,964.425903 100.689827,962.861938 
	C106.344536,953.325500 112.201653,943.909424 117.903397,934.400513 
	C120.277328,930.441467 122.434814,926.352661 124.871475,922.000000 
	C120.146332,922.000000 116.129120,922.254333 112.161400,921.920532 
	C108.916389,921.647522 107.361717,922.989990 106.061829,926.407043 
M212.191833,948.001770 
	C216.092865,949.164551 219.993896,950.327393 224.212387,951.584839 
	C225.910614,948.093811 227.647964,944.522339 229.604950,940.499390 
	C217.326187,935.566772 205.597168,933.743652 193.682541,939.810547 
	C187.051361,943.187134 185.226379,949.006104 186.045837,955.862671 
	C186.718613,961.491821 190.333572,964.690247 195.678192,965.986755 
	C201.435349,967.383301 207.247543,968.560059 212.977325,970.056335 
	C214.117844,970.354187 214.994431,971.662720 215.992737,972.505188 
	C214.796097,973.668091 213.770966,975.531982 212.373444,975.873901 
	C205.921158,977.452759 199.684540,976.450195 193.768707,973.368591 
	C192.429779,972.671143 190.929260,972.283997 189.546646,971.770203 
	C188.108704,974.786926 187.132751,977.366699 185.713852,979.674011 
	C184.015305,982.435913 185.035843,983.949524 187.615768,984.885132 
	C197.664261,988.529175 207.959000,989.131592 218.387604,986.968933 
	C225.032822,985.590942 231.132797,978.401428 230.958984,972.050354 
	C230.752151,964.494019 226.913300,960.165588 218.657684,958.060425 
	C213.678772,956.790894 208.544678,956.133057 203.557510,954.890564 
	C202.530273,954.634644 201.393707,953.095459 201.167099,951.973999 
	C201.024109,951.266296 202.328705,949.707458 203.242477,949.450745 
	C205.859436,948.715820 208.608231,948.450195 212.191833,948.001770 
M304.000000,974.492065 
	C304.000000,978.921997 304.000000,983.351990 304.000000,987.729797 
	C309.623383,987.729797 314.689423,987.729797 320.120728,987.729797 
	C320.120728,975.070251 320.120728,962.676086 320.120728,949.903748 
	C324.228027,949.903748 327.975342,949.903748 331.762665,949.903748 
	C331.762665,945.776550 331.762665,942.041138 331.762665,937.991455 
	C327.423584,937.991455 323.315643,937.991455 319.173340,937.991455 
	C320.029358,930.994080 321.163605,929.033447 326.003876,930.234924 
	C332.479645,931.842407 333.447784,928.075623 334.697540,923.745667 
	C335.034485,922.578369 335.349792,921.404724 335.789642,919.821350 
	C328.876617,916.680420 321.970490,915.947937 314.763275,918.716187 
	C305.915497,922.114380 304.726105,930.011658 303.699646,937.829163 
	C301.292328,937.979919 299.220581,938.109680 297.297058,938.230164 
	C297.297058,942.375122 297.297058,946.118164 297.297058,949.837830 
	C299.671692,949.980591 301.745819,950.105286 304.000000,950.240723 
	C304.000000,958.230408 304.000000,965.862854 304.000000,974.492065 
M1082.000000,967.499878 
	C1082.000000,974.266479 1082.000000,981.033081 1082.000000,987.708130 
	C1087.321533,987.708130 1092.061157,987.708130 1097.000000,987.708130 
	C1097.000000,979.605408 1096.972656,971.793274 1097.007690,963.981445 
	C1097.041138,956.533569 1100.463989,951.951355 1107.484497,950.247009 
	C1109.491333,949.759766 1111.656860,949.925903 1113.765259,949.791504 
	C1113.765259,945.063660 1113.765259,940.633240 1113.765259,934.766113 
	C1107.373413,936.951904 1101.626221,938.917236 1096.043823,940.826233 
	C1096.004272,940.023865 1095.934204,938.602234 1095.869263,937.285278 
	C1091.047852,937.285278 1086.629883,937.285278 1082.000000,937.285278 
	C1082.000000,947.212646 1082.000000,956.856262 1082.000000,967.499878 
z"/>
<path fill="#E38D03" opacity="1.000000" stroke="none" 
	d="
M334.411713,700.882080 
	C324.954437,706.252319 315.526886,711.675659 306.033600,716.981445 
	C287.586273,727.291626 269.117981,737.564575 250.626770,747.795837 
	C240.388138,753.460876 230.068008,758.978455 219.817230,764.621765 
	C210.703384,769.639221 201.648880,774.764648 192.528809,779.770630 
	C191.313004,780.437988 189.865662,780.683533 187.999710,781.297363 
	C187.999710,779.067017 187.999695,777.429016 187.999695,775.791077 
	C187.999695,627.294983 187.998840,478.798859 188.010742,330.302765 
	C188.010880,328.646332 188.177338,326.989868 189.008087,325.147888 
	C192.029297,325.891571 194.404449,326.638184 196.573715,327.777008 
	C240.152618,350.654175 283.718323,373.556610 327.241577,396.539368 
	C329.832367,397.907471 331.820831,398.182220 334.546387,396.662933 
	C397.879578,361.359406 461.259399,326.139496 524.654297,290.946747 
	C550.093445,276.824554 575.588745,262.803528 601.393066,248.860016 
	C691.389221,298.796722 781.050720,348.609894 870.728271,398.467621 
	C870.744324,398.512177 870.702942,398.597382 870.416931,398.792877 
	C869.145325,399.600494 868.183777,400.255829 867.170654,400.818451 
	C813.470520,430.641968 759.771973,460.468475 706.059814,490.270355 
	C671.076843,509.680542 636.073364,529.053894 600.718384,548.331665 
	C510.741394,498.482544 421.125122,448.745544 331.001404,398.726929 
	C331.001404,400.390137 331.001404,401.053986 331.001404,401.717834 
	C331.001038,499.313751 331.024445,596.909729 330.894440,694.505493 
	C330.890198,697.689392 332.340607,699.256287 334.411713,700.882080 
z"/>
<path fill="#FFFFFF" opacity="1.000000" stroke="none" 
	d="
M601.079102,548.443726 
	C636.073364,529.053894 671.076843,509.680542 706.059814,490.270355 
	C759.771973,460.468475 813.470520,430.641968 867.170654,400.818451 
	C868.183777,400.255829 869.145325,399.600494 870.545898,399.279541 
	C870.973938,498.013031 871.006042,596.455322 870.865112,694.897461 
	C870.862244,696.892029 868.844849,698.883728 867.767273,700.876709 
	C851.923706,709.690979 836.058289,718.466370 820.241760,727.328918 
	C797.962769,739.812683 775.742798,752.401855 753.453003,764.866272 
	C740.138550,772.311646 726.715576,779.562927 713.382507,786.975464 
	C690.790527,799.535767 668.254883,812.197510 645.649536,824.733643 
	C631.057678,832.825806 616.383667,840.769958 601.376038,848.360474 
	C601.003784,800.440796 600.990845,752.940918 601.002991,705.441040 
	C601.016357,653.108582 601.052734,600.776184 601.079102,548.443726 
z"/>
<path fill="#13519C" opacity="1.000000" stroke="none" 
	d="
M600.718384,548.331665 
	C601.052734,600.776184 601.016357,653.108582 601.002991,705.441040 
	C600.990845,752.940918 601.003784,800.440796 601.019836,848.397827 
	C586.735535,841.091492 572.390564,833.411926 558.152100,825.539673 
	C544.917542,818.222534 531.820984,810.656372 518.620239,803.277527 
	C495.227875,790.201843 471.829590,777.136230 448.381897,764.160156 
	C431.259430,754.684509 414.013550,745.431885 396.895203,735.948914 
	C376.192749,724.480469 355.566833,712.873718 334.659760,701.104431 
	C332.340607,699.256287 330.890198,697.689392 330.894440,694.505493 
	C331.024445,596.909729 331.001038,499.313751 331.001404,401.717834 
	C331.001404,401.053986 331.001404,400.390137 331.001404,398.726929 
	C421.125122,448.745544 510.741394,498.482544 600.718384,548.331665 
M415.731354,661.722534 
	C419.779816,663.832397 423.828278,665.942261 428.559692,668.408081 
	C428.559692,658.094849 427.918182,648.587036 428.753571,639.210693 
	C429.480560,631.051270 426.858032,626.572571 419.291992,623.303650 
	C409.765015,619.187378 400.821899,613.719849 390.996033,608.500244 
	C390.996033,621.761353 390.918091,634.207825 391.125244,646.649658 
	C391.144470,647.803101 392.760925,649.310669 393.999542,650.000183 
	C400.974518,653.882629 408.060822,657.565063 415.731354,661.722534 
M503.531372,711.577271 
	C503.540802,703.248840 502.788330,694.830811 503.754211,686.614868 
	C504.938507,676.541260 501.464783,670.836609 492.012970,667.062073 
	C483.177734,663.533752 475.022797,658.301819 465.993073,653.514709 
	C465.993073,666.635498 465.902191,678.929626 466.125946,691.218018 
	C466.149750,692.526001 467.747192,694.284485 469.067596,695.013550 
	C479.255524,700.638733 489.542450,706.085510 499.839722,711.509827 
	C500.880798,712.058350 502.193237,712.091736 503.531372,711.577271 
M465.990814,612.316162 
	C466.444763,614.602539 466.142395,618.205627 467.471222,618.968811 
	C479.069519,625.630615 490.959656,631.784302 503.542542,638.505188 
	C503.542542,625.216431 503.623535,612.801514 503.411652,600.391724 
	C503.391449,599.208801 501.763092,597.657898 500.503387,596.956482 
	C492.813751,592.674316 485.019653,588.579407 477.250244,584.440979 
	C473.673096,582.535706 470.073029,580.673523 465.990814,578.533569 
	C465.990814,590.067932 465.990814,600.712891 465.990814,612.316162 
M391.191833,541.770935 
	C391.124908,553.896973 390.953949,566.024475 391.125153,578.147156 
	C391.146118,579.632263 392.665405,581.691467 394.057251,582.466492 
	C403.765961,587.872375 413.622131,593.013611 423.436462,598.229553 
	C424.956909,599.037659 426.504852,599.794128 428.558289,600.837891 
	C428.558289,587.879272 428.647522,575.760315 428.435883,563.646667 
	C428.411713,562.262817 427.016022,560.337952 425.726013,559.629883 
	C414.531097,553.485046 403.214844,547.561218 391.191833,541.770935 
z"/>
<path fill="#13519C" opacity="1.000000" stroke="none" 
	d="
M867.960571,701.187622 
	C868.844849,698.883728 870.862244,696.892029 870.865112,694.897461 
	C871.006042,596.455322 870.973938,498.013031 870.831909,399.084045 
	C870.702942,398.597382 870.744324,398.512177 871.102722,398.338928 
	C917.977600,373.737671 964.495789,349.312805 1010.997253,324.856323 
	C1011.821655,324.422760 1012.446289,323.609344 1013.164062,322.973145 
	C1013.442688,324.512787 1013.965027,326.052399 1013.965393,327.592133 
	C1014.002502,477.004791 1014.000061,626.417419 1013.999939,775.830078 
	C1013.999939,777.438965 1013.999939,779.047852 1013.999939,781.785950 
	C1009.127808,779.225464 1005.100769,777.196655 1001.154724,775.020874 
	C978.968933,762.788208 956.801453,750.522339 934.630005,738.263550 
	C912.469849,726.011108 890.312439,713.753784 867.960571,701.187622 
z"/>
<path fill="#FEFEFF" opacity="1.000000" stroke="none" 
	d="
M1012.924927,322.710358 
	C1012.446289,323.609344 1011.821655,324.422760 1010.997253,324.856323 
	C964.495789,349.312805 917.977600,373.737671 871.086670,398.294373 
	C781.050720,348.609894 691.389221,298.796722 601.373474,248.410141 
	C600.983887,198.010635 600.948486,148.184540 600.913086,98.358459 
	C615.584290,106.153923 630.293945,113.878090 644.915039,121.766472 
	C657.548767,128.582596 670.059753,135.625610 682.663574,142.497726 
	C712.599487,158.819977 742.583496,175.054260 772.500854,191.410400 
	C803.852539,208.550644 835.129089,225.828369 866.478027,242.973709 
	C882.938538,251.976288 899.519165,260.759064 915.982910,269.755859 
	C947.191589,286.810242 978.353821,303.949615 1009.543274,321.039307 
	C1010.546692,321.589111 1011.636292,321.981720 1012.924927,322.710358 
z"/>
<path fill="#13519C" opacity="1.000000" stroke="none" 
	d="
M600.595459,98.389755 
	C600.948486,148.184540 600.983887,198.010635 601.038940,248.286591 
	C575.588745,262.803528 550.093445,276.824554 524.654297,290.946747 
	C461.259399,326.139496 397.879578,361.359406 334.546387,396.662933 
	C331.820831,398.182220 329.832367,397.907471 327.241577,396.539368 
	C283.718323,373.556610 240.152618,350.654175 196.573715,327.777008 
	C194.404449,326.638184 192.029297,325.891571 189.373230,324.898712 
	C189.392471,323.868744 189.512283,322.406158 190.225296,322.009308 
	C204.489639,314.069702 218.818512,306.245880 233.142242,298.413116 
	C257.741455,284.961334 282.333252,271.495911 306.953003,258.081757 
	C323.029510,249.322449 339.177734,240.694565 355.244171,231.916962 
	C379.415741,218.711273 403.531067,205.402618 427.695038,192.182968 
	C443.614044,183.473984 459.586517,174.862747 475.517273,166.175125 
	C499.978790,152.835358 524.405273,139.431152 548.884521,126.124062 
	C565.982788,116.829308 583.144470,107.651237 600.595459,98.389755 
z"/>
<path fill="#FFFFFF" opacity="1.000000" stroke="none" 
	d="
M440.000000,933.019348 
	C440.000000,951.486023 440.000000,969.454956 440.000000,987.711548 
	C435.053833,987.711548 430.316010,987.711548 425.235474,987.711548 
	C425.235474,975.711304 425.235474,963.629883 425.235474,951.548462 
	C424.962372,951.448853 424.689240,951.349304 424.416138,951.249756 
	C419.422821,959.520691 414.433075,967.793762 409.433990,976.061218 
	C408.004211,978.425842 407.275116,980.970032 403.381561,981.200989 
	C399.046265,981.458191 397.693573,978.794861 396.037903,976.105896 
	C391.189270,968.231201 386.454224,960.286621 381.078186,951.381348 
	C381.078186,964.165405 381.078186,975.845764 381.078186,987.759644 
	C375.955536,987.759644 371.218353,987.759644 366.238953,987.759644 
	C366.238953,965.956055 366.238953,944.224731 366.238953,922.246338 
	C370.723145,922.246338 375.156250,922.246338 379.372406,922.246338 
	C387.246460,935.194946 395.089447,948.092407 403.188171,961.410522 
	C410.704773,948.514832 417.824066,936.207031 425.100281,923.992798 
	C425.691040,923.001160 427.323334,922.172119 428.527893,922.089783 
	C432.152435,921.841736 435.804779,922.000366 440.000000,922.000366 
	C440.000000,925.643127 440.000000,929.082336 440.000000,933.019348 
z"/>
<path fill="#FFFFFF" opacity="1.000000" stroke="none" 
	d="
M782.307678,941.199219 
	C791.742920,935.020874 801.031250,933.966125 810.660461,939.937866 
	C815.530151,942.957764 817.684998,947.689880 817.871643,952.880554 
	C818.284241,964.354492 818.000000,975.853455 818.000000,987.670898 
	C813.134888,987.670898 808.395935,987.670898 803.000000,987.670898 
	C803.000000,978.783081 802.875671,969.690613 803.047546,960.603760 
	C803.147705,955.308289 799.117004,948.997498 793.154846,949.872131 
	C787.946655,950.636108 784.049866,953.981018 784.016235,959.362976 
	C783.957947,968.686157 784.000000,978.009949 784.000000,987.666504 
	C778.813477,987.666504 773.737915,987.666504 768.000000,987.666504 
	C768.000000,978.459290 767.993591,969.037109 768.002869,959.614990 
	C768.007019,955.399231 766.623840,951.549011 762.481750,950.333862 
	C758.320068,949.113037 753.734192,949.441589 750.998047,953.689026 
	C749.847168,955.475586 749.134827,957.857178 749.087158,959.987610 
	C748.882874,969.128357 749.000000,978.276367 749.000000,987.710083 
	C743.722656,987.710083 738.649841,987.710083 733.285522,987.710083 
	C733.285522,971.044067 733.285522,954.304810 733.285522,937.282104 
	C737.975037,937.282104 742.730896,937.282104 747.799866,937.282104 
	C747.894653,938.257935 748.000977,939.353149 748.126160,940.642090 
	C749.033936,940.312195 749.953979,940.113708 750.737244,939.672424 
	C760.520020,934.161255 769.754517,934.630310 778.561096,941.894531 
	C779.176941,942.402588 780.848816,941.630432 782.307678,941.199219 
z"/>
<path fill="#FFFFFF" opacity="1.000000" stroke="none" 
	d="
M673.411987,937.145386 
	C676.486145,939.068176 679.170105,940.863159 682.221924,942.904236 
	C687.487366,938.640686 693.885864,935.668518 701.268677,936.052246 
	C712.923645,936.657959 719.955261,942.911865 720.815918,954.211975 
	C721.657776,965.265869 720.999084,976.434021 720.999084,987.774292 
	C715.926208,987.774292 711.191040,987.774292 706.000000,987.774292 
	C706.000000,980.895386 706.113464,974.117126 705.955078,967.345154 
	C705.867615,963.606201 705.671326,959.803223 704.887817,956.166077 
	C704.116150,952.583740 701.604492,950.420776 697.692993,949.961670 
	C692.680542,949.373352 689.159302,951.458191 687.174377,955.822815 
	C686.274231,957.802063 686.082947,960.226074 686.049561,962.455444 
	C685.925354,970.762878 686.000000,979.073181 686.000000,987.690796 
	C681.097839,987.690796 676.362183,987.690796 671.000000,987.690796 
	C671.000000,980.757263 671.101013,973.666687 670.954712,966.581116 
	C670.887939,963.347229 670.582642,960.072693 669.937866,956.907715 
	C669.095215,952.771057 667.111206,949.720764 662.056580,949.946533 
	C657.363708,950.156128 652.662476,952.855286 652.081726,956.747131 
	C651.408936,961.256592 651.176270,965.850647 651.040222,970.416565 
	C650.872070,976.059753 651.000000,981.711670 651.000000,987.679565 
	C646.119568,987.679565 641.382446,987.679565 636.320557,987.679565 
	C636.320557,971.128113 636.320557,954.398987 636.320557,937.334290 
	C640.854004,937.334290 645.594543,937.334290 650.781433,937.334290 
	C650.886169,938.246277 651.019836,939.409607 651.181763,940.819397 
	C658.003906,935.868591 665.274841,934.981628 673.411987,937.145386 
z"/>
<path fill="#FFFFFF" opacity="1.000000" stroke="none" 
	d="
M928.451660,987.988770 
	C927.514099,986.549988 927.024475,985.121033 926.399109,983.295715 
	C921.581543,988.160889 915.202393,988.230774 908.633240,988.058777 
	C901.648682,987.875793 895.800598,984.960999 891.617432,979.908325 
	C883.718323,970.367615 884.365540,953.105591 891.680725,944.704407 
	C899.768616,935.415833 915.047668,932.995361 925.921387,940.797485 
	C925.921387,933.179932 925.921387,925.825806 925.921387,918.241211 
	C931.042480,918.241211 935.779419,918.241211 940.759888,918.241211 
	C940.759888,941.373108 940.759888,964.435913 940.759888,987.998657 
	C936.784058,987.998657 932.841797,987.998657 928.451660,987.988770 
M925.999084,965.057434 
	C926.525574,958.528687 924.812866,952.942322 918.460632,950.071960 
	C913.334717,947.755737 907.605469,949.180420 904.669983,952.828857 
	C901.720398,956.494873 900.882263,965.985718 903.189819,969.588745 
	C906.106506,974.142639 911.090271,975.847717 916.426758,975.103699 
	C922.102051,974.312378 924.042908,970.250061 925.999084,965.057434 
z"/>
<path fill="#FFFFFF" opacity="1.000000" stroke="none" 
	d="
M514.000000,973.993652 
	C514.000000,955.198608 514.000000,936.901978 514.000000,918.302979 
	C519.248779,918.302979 524.318298,918.302979 529.724976,918.302979 
	C529.724976,925.588867 529.724976,933.010559 529.724976,940.867371 
	C536.846375,936.604126 543.855286,934.835266 551.718994,936.926147 
	C559.311951,938.945068 565.844177,946.131897 565.958435,953.931946 
	C566.121704,965.071716 566.000000,976.215698 566.000000,987.678711 
	C561.121582,987.678711 556.384705,987.678711 551.000000,987.678711 
	C551.000000,979.286438 551.179321,970.698181 550.901306,962.124695 
	C550.805969,959.183838 550.107727,955.990112 548.731995,953.422424 
	C546.205811,948.707397 541.316467,949.259216 537.291748,950.397095 
	C532.381897,951.785217 530.073547,955.939575 530.023804,961.041138 
	C529.938049,969.840759 530.000000,978.641907 530.000000,987.720215 
	C524.704590,987.720215 519.635498,987.720215 514.000000,987.720215 
	C514.000000,983.357788 514.000000,978.924927 514.000000,973.993652 
z"/>
<path fill="#FFFFFF" opacity="1.000000" stroke="none" 
	d="
M860.003662,936.971191 
	C868.952942,937.683289 878.614136,946.319763 879.964233,954.629028 
	C880.590637,958.484070 880.891052,962.392029 881.386230,966.683350 
	C868.531799,966.683350 856.119629,966.683350 843.610352,966.683350 
	C846.465942,977.093018 858.924500,979.062439 869.386230,970.737610 
	C872.090454,973.662842 874.813904,976.608887 877.595642,979.617920 
	C872.838318,985.456726 867.179321,987.850159 860.619812,987.946167 
	C853.514343,988.050232 846.596985,988.306396 839.756897,984.564026 
	C827.243774,977.717834 823.820557,960.020630 830.897827,948.343994 
	C836.347595,939.352661 850.063293,933.556641 860.003662,936.971191 
M847.109680,950.363525 
	C845.611145,952.316406 844.112671,954.269287 842.124023,956.860901 
	C850.688965,956.860901 858.082703,956.860901 865.465393,956.860901 
	C862.385864,948.081970 856.430786,945.763245 847.109680,950.363525 
z"/>
<path fill="#FFFFFF" opacity="1.000000" stroke="none" 
	d="
M605.640381,951.259888 
	C597.356995,946.884705 589.945374,948.977356 582.388062,953.394104 
	C580.495911,949.798950 578.714539,946.414307 576.682800,942.553894 
	C585.395020,936.771912 594.882935,934.792114 604.896851,936.562927 
	C609.143616,937.313843 613.335938,939.446655 617.078735,941.729187 
	C623.121277,945.414062 623.408569,952.239990 623.817871,958.197815 
	C624.487244,967.941650 623.998840,977.765076 623.998840,987.775513 
	C618.901001,987.775513 614.140503,987.775513 609.135315,987.775513 
	C609.052246,986.307373 608.971069,984.871887 608.885986,983.368408 
	C601.252930,990.067017 586.660950,989.904358 579.800659,983.381592 
	C574.786194,978.613892 574.248291,973.018982 576.086304,966.911499 
	C577.471619,962.308228 584.125000,958.310730 589.997070,957.976257 
	C595.900757,957.639954 601.793396,957.110779 608.390808,956.613342 
	C607.534790,954.793213 606.757568,953.140625 605.640381,951.259888 
M604.327148,967.000000 
	C601.508179,967.000916 598.523804,966.428711 595.921570,967.180115 
	C593.757385,967.805115 592.042419,969.985779 590.128479,971.477356 
	C591.645142,973.319031 592.803284,975.872986 594.752991,976.854309 
	C598.823425,978.903076 604.467651,976.947021 607.116272,973.332336 
	C609.110352,970.611084 608.288452,967.805420 604.327148,967.000000 
z"/>
<path fill="#FFFFFF" opacity="1.000000" stroke="none" 
	d="
M491.582275,939.214294 
	C505.142151,946.015503 506.969543,957.356506 504.727051,969.229736 
	C502.498474,981.029236 489.997528,988.094604 480.295624,988.147400 
	C471.088654,988.197449 462.681549,987.126221 456.268219,979.759766 
	C449.438812,971.915344 448.203522,962.840637 451.379883,953.310059 
	C454.463776,944.056824 461.262421,938.968567 470.901093,936.860901 
	C478.116943,935.282959 484.664154,936.397095 491.582275,939.214294 
M470.040833,972.563477 
	C474.097778,976.067749 478.590332,976.707153 483.272552,974.135620 
	C488.516571,971.255676 490.646210,966.391663 489.887268,960.718750 
	C489.174255,955.388794 486.550995,950.987366 480.850098,949.320557 
	C476.618042,948.083191 470.282654,950.189575 468.132599,953.558838 
	C464.382080,959.436462 464.957367,967.139343 470.040833,972.563477 
z"/>
<path fill="#FFFFFF" opacity="1.000000" stroke="none" 
	d="
M989.993713,957.600830 
	C986.624023,950.270020 983.654419,948.621338 977.116821,950.012146 
	C972.882507,950.913025 969.087830,956.405518 969.024475,962.094177 
	C968.930176,970.554077 969.000000,979.015747 969.000000,987.737000 
	C964.005737,987.737000 959.270447,987.737000 954.265320,987.737000 
	C954.265320,971.018433 954.265320,954.294373 954.265320,937.284546 
	C958.964050,937.284546 963.713684,937.284546 968.794373,937.284546 
	C968.889221,938.239990 968.997437,939.329468 969.125732,940.621704 
	C970.021790,940.304443 970.947388,940.131348 971.711060,939.682556 
	C980.229187,934.677307 988.730225,934.621643 997.228271,939.691772 
	C1003.606079,943.496948 1005.532654,949.914185 1005.864014,956.537842 
	C1006.377869,966.810425 1005.999512,977.127563 1005.999512,987.712280 
	C1000.721313,987.712280 995.653076,987.712280 989.999268,987.712280 
	C989.999268,977.881287 989.999268,967.962463 989.993713,957.600830 
z"/>
<path fill="#FFFFFF" opacity="1.000000" stroke="none" 
	d="
M170.965393,988.000000 
	C167.830597,988.000000 165.176407,988.000000 162.216599,988.000000 
	C162.064499,986.612610 161.930969,985.394714 161.784683,984.060425 
	C161.088196,984.180420 160.513824,984.113647 160.167068,984.363159 
	C148.452789,992.792786 132.280609,988.461060 126.866203,975.258362 
	C125.790604,972.635620 125.145378,969.659912 125.083565,966.829895 
	C124.869759,957.041382 125.001167,947.245300 125.001167,937.228027 
	C130.404877,937.228027 135.475754,937.228027 141.000000,937.228027 
	C141.000000,945.946533 140.995483,954.558838 141.001373,963.171143 
	C141.006424,970.539551 143.845367,974.381775 149.722656,974.998291 
	C155.227386,975.575806 160.307693,971.268250 160.919266,964.652405 
	C161.751633,955.648132 161.992523,946.589111 162.502563,937.270386 
	C166.982742,937.270386 171.721390,937.270386 176.732407,937.270386 
	C176.732407,953.988953 176.732407,970.724731 176.732407,988.000000 
	C174.984299,988.000000 173.215134,988.000000 170.965393,988.000000 
z"/>
<path fill="#FFFFFF" opacity="1.000000" stroke="none" 
	d="
M275.572632,987.805908 
	C275.040802,986.492920 274.920288,985.350281 274.759277,983.823303 
	C266.301727,989.279114 257.551086,989.529175 248.680023,985.865906 
	C242.685760,983.390564 239.534821,978.046875 239.195862,972.156128 
	C238.533783,960.649963 239.001602,949.078796 239.001602,937.264404 
	C243.327805,937.264404 248.398911,937.264404 254.000000,937.264404 
	C254.000000,946.190491 254.034866,955.125000 253.984085,964.059082 
	C253.961456,968.039246 254.896088,971.759644 258.504364,973.708008 
	C262.244080,975.727295 266.380463,975.759521 269.950165,972.974365 
	C273.985840,969.825684 274.782471,965.121460 274.933167,960.464600 
	C275.180054,952.834167 274.999969,945.189941 274.999969,937.276978 
	C279.968719,937.276978 284.706635,937.276978 289.724792,937.276978 
	C289.724792,953.970764 289.724792,970.704285 289.724792,987.976379 
	C285.185394,987.976379 280.584717,987.976379 275.572632,987.805908 
z"/>
<path fill="#FFFFFF" opacity="1.000000" stroke="none" 
	d="
M1018.000000,945.052368 
	C1018.000000,942.245361 1018.000000,939.930176 1018.000000,937.309143 
	C1022.903564,937.309143 1027.639526,937.309143 1033.000000,937.309143 
	C1033.000000,946.073486 1033.054321,954.991211 1032.975342,963.907654 
	C1032.940063,967.895813 1033.793457,971.720093 1037.371826,973.621094 
	C1041.005493,975.551392 1045.713989,976.446655 1048.635010,972.880493 
	C1051.189331,969.761963 1053.377563,965.545227 1053.766724,961.619263 
	C1054.550537,953.712646 1054.000000,945.673767 1054.000000,937.344849 
	C1058.825806,937.344849 1063.564697,937.344849 1068.654297,937.344849 
	C1068.654297,953.817810 1068.654297,970.545654 1068.654297,987.637207 
	C1064.057007,987.637207 1059.165527,987.637207 1054.170288,987.637207 
	C1054.067505,986.620972 1053.955078,985.507812 1053.961060,985.566772 
	C1048.214722,986.383850 1042.548096,987.709473 1036.845337,987.890198 
	C1025.628540,988.245789 1018.008850,980.320312 1018.001099,969.017395 
	C1017.995728,961.192993 1018.000000,953.368530 1018.000000,945.052368 
z"/>
<path fill="#FFFFFF" opacity="1.000000" stroke="none" 
	d="
M106.355469,926.141785 
	C107.361717,922.989990 108.916389,921.647522 112.161400,921.920532 
	C116.129120,922.254333 120.146332,922.000000 124.871475,922.000000 
	C122.434814,926.352661 120.277328,930.441467 117.903397,934.400513 
	C112.201653,943.909424 106.344536,953.325500 100.689827,962.861938 
	C99.762466,964.425903 99.128639,966.398621 99.075005,968.203735 
	C98.883362,974.653137 99.000000,981.111755 99.000000,987.780273 
	C93.580688,987.780273 88.512268,987.780273 83.000000,987.780273 
	C83.000000,983.049255 82.395218,978.337097 83.125809,973.841980 
	C84.649994,964.463989 79.417633,957.742676 75.074364,950.576111 
	C69.428116,941.259705 63.770351,931.950195 57.858944,922.211731 
	C64.190887,922.211731 69.907135,922.211731 75.422836,922.211731 
	C80.830338,931.210022 86.194267,940.135803 91.976128,949.757019 
	C96.869331,941.645508 101.465576,934.026245 106.355469,926.141785 
z"/>
<path fill="#FFFFFF" opacity="1.000000" stroke="none" 
	d="
M211.748505,948.000916 
	C208.608231,948.450195 205.859436,948.715820 203.242477,949.450745 
	C202.328705,949.707458 201.024109,951.266296 201.167099,951.973999 
	C201.393707,953.095459 202.530273,954.634644 203.557510,954.890564 
	C208.544678,956.133057 213.678772,956.790894 218.657684,958.060425 
	C226.913300,960.165588 230.752151,964.494019 230.958984,972.050354 
	C231.132797,978.401428 225.032822,985.590942 218.387604,986.968933 
	C207.959000,989.131592 197.664261,988.529175 187.615768,984.885132 
	C185.035843,983.949524 184.015305,982.435913 185.713852,979.674011 
	C187.132751,977.366699 188.108704,974.786926 189.546646,971.770203 
	C190.929260,972.283997 192.429779,972.671143 193.768707,973.368591 
	C199.684540,976.450195 205.921158,977.452759 212.373444,975.873901 
	C213.770966,975.531982 214.796097,973.668091 215.992737,972.505188 
	C214.994431,971.662720 214.117844,970.354187 212.977325,970.056335 
	C207.247543,968.560059 201.435349,967.383301 195.678192,965.986755 
	C190.333572,964.690247 186.718613,961.491821 186.045837,955.862671 
	C185.226379,949.006104 187.051361,943.187134 193.682541,939.810547 
	C205.597168,933.743652 217.326187,935.566772 229.604950,940.499390 
	C227.647964,944.522339 225.910614,948.093811 224.212387,951.584839 
	C219.993896,950.327393 216.092865,949.164551 211.748505,948.000916 
z"/>
<path fill="#FFFFFF" opacity="1.000000" stroke="none" 
	d="
M304.000000,973.993652 
	C304.000000,965.862854 304.000000,958.230408 304.000000,950.240723 
	C301.745819,950.105286 299.671692,949.980591 297.297058,949.837830 
	C297.297058,946.118164 297.297058,942.375122 297.297058,938.230164 
	C299.220581,938.109680 301.292328,937.979919 303.699646,937.829163 
	C304.726105,930.011658 305.915497,922.114380 314.763275,918.716187 
	C321.970490,915.947937 328.876617,916.680420 335.789642,919.821350 
	C335.349792,921.404724 335.034485,922.578369 334.697540,923.745667 
	C333.447784,928.075623 332.479645,931.842407 326.003876,930.234924 
	C321.163605,929.033447 320.029358,930.994080 319.173340,937.991455 
	C323.315643,937.991455 327.423584,937.991455 331.762665,937.991455 
	C331.762665,942.041138 331.762665,945.776550 331.762665,949.903748 
	C327.975342,949.903748 324.228027,949.903748 320.120728,949.903748 
	C320.120728,962.676086 320.120728,975.070251 320.120728,987.729797 
	C314.689423,987.729797 309.623383,987.729797 304.000000,987.729797 
	C304.000000,983.351990 304.000000,978.921997 304.000000,973.993652 
z"/>
<path fill="#FFFFFF" opacity="1.000000" stroke="none" 
	d="
M1082.000000,966.999878 
	C1082.000000,956.856262 1082.000000,947.212646 1082.000000,937.285278 
	C1086.629883,937.285278 1091.047852,937.285278 1095.869263,937.285278 
	C1095.934204,938.602234 1096.004272,940.023865 1096.043823,940.826233 
	C1101.626221,938.917236 1107.373413,936.951904 1113.765259,934.766113 
	C1113.765259,940.633240 1113.765259,945.063660 1113.765259,949.791504 
	C1111.656860,949.925903 1109.491333,949.759766 1107.484497,950.247009 
	C1100.463989,951.951355 1097.041138,956.533569 1097.007690,963.981445 
	C1096.972656,971.793274 1097.000000,979.605408 1097.000000,987.708130 
	C1092.061157,987.708130 1087.321533,987.708130 1082.000000,987.708130 
	C1082.000000,981.033081 1082.000000,974.266479 1082.000000,966.999878 
z"/>
<path fill="#FAFCFD" opacity="1.000000" stroke="none" 
	d="
M415.420258,661.519165 
	C408.060822,657.565063 400.974518,653.882629 393.999542,650.000183 
	C392.760925,649.310669 391.144470,647.803101 391.125244,646.649658 
	C390.918091,634.207825 390.996033,621.761353 390.996033,608.500244 
	C400.821899,613.719849 409.765015,619.187378 419.291992,623.303650 
	C426.858032,626.572571 429.480560,631.051270 428.753571,639.210693 
	C427.918182,648.587036 428.559692,658.094849 428.559692,668.408081 
	C423.828278,665.942261 419.779816,663.832397 415.420258,661.519165 
z"/>
<path fill="#FAFCFD" opacity="1.000000" stroke="none" 
	d="
M503.455566,711.970703 
	C502.193237,712.091736 500.880798,712.058350 499.839722,711.509827 
	C489.542450,706.085510 479.255524,700.638733 469.067596,695.013550 
	C467.747192,694.284485 466.149750,692.526001 466.125946,691.218018 
	C465.902191,678.929626 465.993073,666.635498 465.993073,653.514709 
	C475.022797,658.301819 483.177734,663.533752 492.012970,667.062073 
	C501.464783,670.836609 504.938507,676.541260 503.754211,686.614868 
	C502.788330,694.830811 503.540802,703.248840 503.455566,711.970703 
z"/>
<path fill="#FAFCFD" opacity="1.000000" stroke="none" 
	d="
M465.990814,611.837036 
	C465.990814,600.712891 465.990814,590.067932 465.990814,578.533569 
	C470.073029,580.673523 473.673096,582.535706 477.250244,584.440979 
	C485.019653,588.579407 492.813751,592.674316 500.503387,596.956482 
	C501.763092,597.657898 503.391449,599.208801 503.411652,600.391724 
	C503.623535,612.801514 503.542542,625.216431 503.542542,638.505188 
	C490.959656,631.784302 479.069519,625.630615 467.471222,618.968811 
	C466.142395,618.205627 466.444763,614.602539 465.990814,611.837036 
z"/>
<path fill="#FAFCFD" opacity="1.000000" stroke="none" 
	d="
M391.563263,541.671265 
	C403.214844,547.561218 414.531097,553.485046 425.726013,559.629883 
	C427.016022,560.337952 428.411713,562.262817 428.435883,563.646667 
	C428.647522,575.760315 428.558289,587.879272 428.558289,600.837891 
	C426.504852,599.794128 424.956909,599.037659 423.436462,598.229553 
	C413.622131,593.013611 403.765961,587.872375 394.057251,582.466492 
	C392.665405,581.691467 391.146118,579.632263 391.125153,578.147156 
	C390.953949,566.024475 391.124908,553.896973 391.563263,541.671265 
z"/>
<path fill="#000000" opacity="1.000000" stroke="none" 
	d="
M925.992798,965.480591 
	C924.042908,970.250061 922.102051,974.312378 916.426758,975.103699 
	C911.090271,975.847717 906.106506,974.142639 903.189819,969.588745 
	C900.882263,965.985718 901.720398,956.494873 904.669983,952.828857 
	C907.605469,949.180420 913.334717,947.755737 918.460632,950.071960 
	C924.812866,952.942322 926.525574,958.528687 925.992798,965.480591 
z"/>
<path fill="#000000" opacity="1.000000" stroke="none" 
	d="
M847.462524,950.190674 
	C856.430786,945.763245 862.385864,948.081970 865.465393,956.860901 
	C858.082703,956.860901 850.688965,956.860901 842.124023,956.860901 
	C844.112671,954.269287 845.611145,952.316406 847.462524,950.190674 
z"/>
<path fill="#000000" opacity="1.000000" stroke="none" 
	d="
M604.794250,967.000061 
	C608.288452,967.805420 609.110352,970.611084 607.116272,973.332336 
	C604.467651,976.947021 598.823425,978.903076 594.752991,976.854309 
	C592.803284,975.872986 591.645142,973.319031 590.128479,971.477356 
	C592.042419,969.985779 593.757385,967.805115 595.921570,967.180115 
	C598.523804,966.428711 601.508179,967.000916 604.794250,967.000061 
z"/>
<path fill="#000000" opacity="1.000000" stroke="none" 
	d="
M469.775543,972.284485 
	C464.957367,967.139343 464.382080,959.436462 468.132599,953.558838 
	C470.282654,950.189575 476.618042,948.083191 480.850098,949.320557 
	C486.550995,950.987366 489.174255,955.388794 489.887268,960.718750 
	C490.646210,966.391663 488.516571,971.255676 483.272552,974.135620 
	C478.590332,976.707153 474.097778,976.067749 469.775543,972.284485 
z"/>
</svg>